<svg width="178" height="136" viewBox="0 0 178 136" fill="none" xmlns="http://www.w3.org/2000/svg">
<path d="M36.2519 52.2464H138.734C155.138 52.2464 166.028 69.237 159.178 84.1429L142.581 120.252C138.911 128.238 130.926 133.356 122.137 133.356H49.9817C40.6403 133.356 32.2706 127.584 28.9507 118.852L15.2209 82.743C9.62206 68.0181 20.4985 52.2464 36.2519 52.2464Z" fill="#8FC19D" stroke="black" stroke-width="5"/>
<line x1="59.2454" y1="49.6302" x2="79.9223" y2="1.02144" stroke="black" stroke-width="5"/>
<line x1="97.6228" y1="1.02157" x2="118.297" y2="49.6317" stroke="black" stroke-width="5"/>
<path d="M108.218 105.723C109.112 106.302 109.372 107.501 108.736 108.355C105.601 112.559 101.386 115.854 96.5221 117.878C91.0636 120.15 85.0449 120.715 79.2591 119.498C73.4734 118.281 68.1922 115.339 64.1115 111.061C60.0308 106.782 57.3422 101.368 56.4 95.5311C55.4579 89.6943 56.3063 83.709 58.8335 78.364C61.3608 73.019 65.4482 68.5651 70.5572 65.5895C75.6661 62.6138 81.5568 61.2559 87.4528 61.6948C92.7063 62.0858 97.7443 63.887 102.043 66.8917C102.916 67.5019 103.045 68.7215 102.379 69.5524V69.5524C101.713 70.3832 100.503 70.5098 99.6237 69.9083C95.9383 67.3865 91.6425 65.8743 87.1665 65.5411C82.0478 65.1601 76.9338 66.339 72.4984 68.9223C68.063 71.5057 64.5145 75.3724 62.3204 80.0127C60.1264 84.653 59.3898 89.8492 60.2078 94.9165C61.0257 99.9838 63.3599 104.684 66.9025 108.399C70.4452 112.113 75.0301 114.667 80.0531 115.723C85.076 116.78 90.3012 116.29 95.0401 114.317C99.1839 112.593 102.786 109.806 105.49 106.252C106.136 105.405 107.324 105.144 108.218 105.723V105.723Z" fill="white"/>
<path d="M102.669 74.3096C98.5538 74.3096 95.2169 77.6362 95.2169 81.7404C95.2169 85.0535 96.5209 92.9166 109.357 100.865C109.587 101.006 109.851 101.081 110.12 101.081C110.39 101.081 110.653 101.006 110.883 100.865C123.72 92.9166 125.024 85.0535 125.024 81.7404C125.024 77.6362 121.687 74.3096 117.572 74.3096C113.457 74.3096 110.12 78.8131 110.12 78.8131C110.12 78.8131 106.783 74.3096 102.669 74.3096Z" fill="white" stroke="#698C73" stroke-linecap="round" stroke-linejoin="round"/>
</svg>
