<svg width="644" height="487" viewBox="0 0 644 487" fill="none" xmlns="http://www.w3.org/2000/svg">
<path d="M36.2519 177.5H604.995C621.4 177.5 632.29 194.491 625.439 209.396L505.019 471.396C501.349 479.382 493.365 484.5 484.575 484.5H135.872C126.531 484.5 118.161 478.728 114.841 469.997L15.2209 207.997C9.62204 193.272 20.4985 177.5 36.2519 177.5Z" fill="#8FC19D" stroke="black" stroke-width="5"/>
<line x1="220.699" y1="177.146" x2="295.618" y2="1.02152" stroke="black" stroke-width="5"/>
<line x1="347.683" y1="1.02157" x2="422.59" y2="177.151" stroke="black" stroke-width="5"/>
<path d="M392.107 377.822C395.346 379.919 396.289 384.262 393.983 387.356C382.625 402.59 367.351 414.529 349.729 421.863C329.951 430.094 308.144 432.14 287.18 427.73C266.217 423.32 247.081 412.662 232.296 397.16C217.51 381.659 207.768 362.041 204.355 340.892C200.941 319.743 204.015 298.057 213.172 278.69C222.329 259.324 237.139 243.186 255.65 232.404C274.162 221.622 295.505 216.702 316.868 218.292C335.903 219.709 354.158 226.235 369.732 237.123C372.895 239.334 373.365 243.753 370.951 246.763C368.536 249.773 364.152 250.232 360.967 248.053C347.614 238.915 332.049 233.436 315.831 232.229C297.284 230.848 278.755 235.12 262.684 244.48C246.613 253.841 233.756 267.851 225.806 284.664C217.856 301.477 215.187 320.305 218.151 338.665C221.115 357.025 229.572 374.057 242.408 387.515C255.245 400.973 271.857 410.226 290.057 414.054C308.257 417.882 327.189 416.107 344.359 408.96C359.374 402.712 372.424 392.613 382.224 379.739C384.562 376.668 388.867 375.724 392.107 377.822Z" fill="white"/>
<path d="M372 264C357.091 264 345 276.053 345 290.924C345 302.928 349.725 331.419 396.235 360.219C397.068 360.73 398.025 361 399 361C399.975 361 400.932 360.73 401.765 360.219C448.275 331.419 453 302.928 453 290.924C453 276.053 440.909 264 426 264C411.091 264 399 280.318 399 280.318C399 280.318 386.909 264 372 264Z" fill="white" stroke="#698C73" stroke-linecap="round" stroke-linejoin="round"/>
</svg>
