<svg width="70" height="70" viewBox="0 0 70 70" fill="none" xmlns="http://www.w3.org/2000/svg">
<mask id="mask0_97_481" style="mask-type:alpha" maskUnits="userSpaceOnUse" x="11" y="42" width="47" height="22">
<path fill-rule="evenodd" clip-rule="evenodd" d="M11.6667 42.2803H57.8664V63.7878H11.6667V42.2803Z" fill="white"/>
</mask>
<g mask="url(#mask0_97_481)">
<path fill-rule="evenodd" clip-rule="evenodd" d="M34.7693 46.6553C22.3414 46.6553 16.0414 48.7903 16.0414 53.0049C16.0414 57.2574 22.3414 59.4128 34.7693 59.4128C47.1943 59.4128 53.4914 57.2778 53.4914 53.0632C53.4914 48.8107 47.1943 46.6553 34.7693 46.6553M34.7693 63.7878C29.0555 63.7878 11.6664 63.7878 11.6664 53.0049C11.6664 43.3915 24.8526 42.2803 34.7693 42.2803C40.483 42.2803 57.8664 42.2803 57.8664 53.0632C57.8664 62.6765 44.683 63.7878 34.7693 63.7878" fill="#333333"/>
</g>
<mask id="mask1_97_481" style="mask-type:alpha" maskUnits="userSpaceOnUse" x="19" y="5" width="32" height="32">
<path fill-rule="evenodd" clip-rule="evenodd" d="M19.2788 5.83362H50.2539V36.8045H19.2788V5.83362Z" fill="white"/>
</mask>
<g mask="url(#mask1_97_481)">
<path fill-rule="evenodd" clip-rule="evenodd" d="M34.7693 9.99746C28.5247 9.99746 23.4439 15.0754 23.4439 21.32C23.4235 27.5441 28.4664 32.6191 34.6847 32.6425L34.7693 34.725V32.6425C41.011 32.6425 46.0889 27.5616 46.0889 21.32C46.0889 15.0754 41.011 9.99746 34.7693 9.99746M34.7693 36.8045H34.676C26.1535 36.7783 19.2497 29.8279 19.2789 21.3112C19.2789 12.78 26.2264 5.83246 34.7693 5.83246C43.3093 5.83246 50.2539 12.78 50.2539 21.32C50.2539 29.86 43.3093 36.8045 34.7693 36.8045" fill="#333333"/>
</g>
</svg>
