<svg width="97" height="97" viewBox="0 0 97 97" fill="none" xmlns="http://www.w3.org/2000/svg">
<path fill-rule="evenodd" clip-rule="evenodd" d="M30.9795 14.1459C20.7541 14.1459 14.146 21.1501 14.146 31.9939V65.0062C14.146 75.85 20.7541 82.8542 30.9795 82.8542H66.0127C76.2422 82.8542 82.8543 75.85 82.8543 65.0062V31.9939C82.8543 21.1501 76.2422 14.1459 66.0167 14.1459H30.9795ZM66.0127 88.9167H30.9795C17.2823 88.9167 8.0835 79.3056 8.0835 65.0062V31.9939C8.0835 17.6945 17.2823 8.08337 30.9795 8.08337H66.0167C79.714 8.08337 88.9168 17.6945 88.9168 31.9939V65.0062C88.9168 79.3056 79.714 88.9167 66.0127 88.9167Z" fill="#8FC19D"/>
<path fill-rule="evenodd" clip-rule="evenodd" d="M43.7047 61.1221C42.9328 61.1221 42.1527 60.8271 41.5627 60.233L31.9677 50.6421C30.7835 49.4579 30.7835 47.5421 31.9677 46.3579C33.152 45.1737 35.0677 45.1737 36.2519 46.3579L43.7047 53.8027L60.7444 36.7671C61.9286 35.5829 63.8444 35.5829 65.0286 36.7671C66.2128 37.9513 66.2128 39.867 65.0286 41.0512L45.8468 60.233C45.2567 60.8271 44.4807 61.1221 43.7047 61.1221Z" fill="#8FC19D"/>
</svg>
