<svg width="60" height="60" viewBox="0 0 60 60" fill="none" xmlns="http://www.w3.org/2000/svg">
<path d="M30 60C46.5685 60 60 46.5685 60 30C60 13.4315 46.5685 0 30 0C13.4315 0 0 13.4315 0 30C0 46.5685 13.4315 60 30 60Z" fill="#1B9DF0"/>
<path d="M24.5101 45.8251C37.8151 45.8251 45.0901 34.8001 45.0901 25.245C45.0901 24.93 45.0901 24.615 45.0751 24.3151C46.4851 23.2951 47.7151 22.0201 48.6901 20.565C47.4001 21.135 46.0051 21.525 44.5351 21.705C46.0351 20.805 47.1751 19.395 47.7151 17.7C46.3201 18.525 44.7751 19.125 43.1251 19.455C41.8051 18.045 39.9301 17.175 37.8451 17.175C33.8551 17.175 30.6151 20.415 30.6151 24.405C30.6151 24.975 30.6751 25.53 30.8101 26.055C24.7951 25.755 19.4701 22.875 15.9001 18.495C15.2851 19.56 14.9251 20.805 14.9251 22.125C14.9251 24.63 16.2001 26.85 18.1501 28.14C16.9651 28.1101 15.8551 27.7801 14.8801 27.2401C14.8801 27.2701 14.8801 27.3 14.8801 27.33C14.8801 30.84 17.3701 33.75 20.6851 34.425C20.0851 34.59 19.4401 34.68 18.7801 34.68C18.3151 34.68 17.8651 34.635 17.4151 34.545C18.3301 37.4251 21.0001 39.51 24.1651 39.57C21.6901 41.505 18.5701 42.66 15.1801 42.66C14.5951 42.66 14.0251 42.6301 13.4551 42.5551C16.6201 44.6251 20.4301 45.8251 24.5101 45.8251Z" fill="white"/>
</svg>
